<svg baseProfile="basic" xmlns="http://www.w3.org/2000/svg" viewBox="0 0 256 256"><path fill="#263E4F" d="M152.8 122.9v4.2h12.5c.9 0 1.5.7 1.5 1.5 0 .9-.7 1.5-1.5 1.5h-12.5v6c0 .9-.7 1.5-1.5 1.5-.9 0-1.5-.7-1.5-1.5v-14.5c0-1 .8-1.9 1.9-1.9h13.7c.9 0 1.5.7 1.5 1.5 0 .9-.7 1.5-1.5 1.5h-12.6zm17.2 12v-13.5c0-.9.7-1.5 1.5-1.5.9 0 1.5.7 1.5 1.5v13.3h8.6c.9 0 1.5.7 1.5 1.5 0 .9-.7 1.5-1.5 1.5h-8.8c-1.6 0-2.8-1.2-2.8-2.8zm26.9-15.1h-4.2c-3.6 0-6.5 2.9-6.5 6.5v4.9c0 3.6 2.9 6.5 6.5 6.5h4.2c3.6 0 6.5-2.9 6.5-6.5v-4.9c0-3.6-2.9-6.5-6.5-6.5zm3.4 11.4c0 1.9-1.5 3.4-3.4 3.4h-4.2c-1.9 0-3.4-1.5-3.4-3.4v-5c0-1.9 1.5-3.4 3.4-3.4h4.2c1.9 0 3.4 1.5 3.4 3.4v5zm43.2-8.3h-5.6v13.3c0 .9-.7 1.5-1.5 1.5-.9 0-1.5-.7-1.5-1.5v-13.3h-5.6c-.9 0-1.5-.7-1.5-1.5 0-.9.7-1.5 1.5-1.5h14.3c.9 0 1.5.7 1.5 1.5-.1.8-.8 1.5-1.6 1.5zm-16.6 14.6c.7-.4 1-1.4.5-2.1l-9.1-14.8c-.3-.5-.8-.7-1.3-.7s-1 .3-1.3.7l-9.1 14.8c-.3.5-.3 1.1 0 1.6s.8.8 1.3.8h9.1c.9 0 1.5-.7 1.5-1.5s-.7-1.5-1.5-1.5h-6.3l6.3-10.3 7.7 12.7c.3.5.8.7 1.3.7.4-.2.7-.3.9-.4zm-99.4 1.5l8.3-8.3 2.6 2.6c.4.4 1.1.6 1.7.3.6-.2 1-.8 1-1.4v-16.3c0-.9-.7-1.5-1.5-1.5h-16.3c-.6 0-1.2.4-1.4 1-.2.6-.1 1.2.3 1.7l3.7 3.7c.6.6 1.6.6 2.2 0 .6-.6.6-1.6 0-2.2l-1-1h11v11l-1-1c-.6-.6-1.6-.6-2.2 0l-9.4 9.4c-.6.6-.6 1.6 0 2.2.3.3.7.5 1.1.5s.6-.4.9-.7z"/><path fill="#F9943C" d="M14.1 122.9v4.2h12.5c.9 0 1.5.7 1.5 1.5 0 .9-.7 1.5-1.5 1.5H14.1v6c0 .9-.7 1.5-1.5 1.5-.9 0-1.5-.7-1.5-1.5v-14.5c0-1 .8-1.9 1.9-1.9h13.7c.9 0 1.5.7 1.5 1.5 0 .9-.7 1.5-1.5 1.5H14.1zm18.7-3.1c.9 0 1.5.7 1.5 1.5v14.8c0 .9-.7 1.5-1.5 1.5-.9 0-1.5-.7-1.5-1.5v-14.8c-.1-.8.6-1.5 1.5-1.5zm50 17.9c-.9 0-1.5-.7-1.5-1.5v-14.8c0-.4.2-.8.5-1.1.3-.3.7-.5 1.1-.5h7c4.8 0 8.6 3.9 8.6 8.9 0 4.8-4.2 8.9-9.1 8.9h-6.6zm6.5-3.1c3.2 0 6-2.7 6-5.9 0-3.3-2.4-5.9-5.5-5.9h-5.4v11.7h4.9zm-22.6-13.2c0-.9.7-1.5 1.5-1.5h8.4c.9 0 1.5.7 1.5 1.5 0 .9-.7 1.5-1.5 1.5h-8.4c-.8 0-1.5-.7-1.5-1.5zm10 13.2H64.2v-4.4h12.5c.9 0 1.5-.7 1.5-1.5 0-.9-.7-1.5-1.5-1.5H62.4c-.2 0-.4.1-.6.2-.4.3-.7.7-.7 1.3v7.5c0 .3.1.6.3.9.1.2.3.3.4.4.2.2.5.3.9.3h14c.9 0 1.5-.7 1.5-1.5 0-1-.7-1.7-1.5-1.7zm-29.6-4.4c.8-.8.8-2 0-2.8l-7.1-7.1c-.4-.4-1.2-.6-1.9-.3-.2.1-.5.3-.6.6-.4.7-.2 1.4.3 1.9l6.3 6.3-6.3 6.3c-.4.4-.6 1.2-.3 1.9.1.2.3.5.6.6.7.4 1.4.2 1.9-.3l7.1-7.1zm8.3 7.1c.4.4 1.2.6 1.9.3.2-.1.5-.3.6-.6.4-.7.2-1.4-.3-1.9l-6.3-6.3 6.3-6.3c.4-.4.6-1.2.3-1.9-.1-.2-.3-.5-.6-.6-.7-.4-1.4-.2-1.9.3l-7.1 7.1c-.8.8-.8 2 0 2.8l7.1 7.1zm72.6-10.6l-3.3-3.3-3.3-3.3c-.3-.3-.7-.5-1.1-.5-.4 0-.8.2-1.1.5l-4.2 4.2-4.2 4.2-1.3-1.3-1.3-1.3c-.2-.2-.5-.3-.8-.2-.2.1-.4.3-.4.7V141c0 .2.1.4.2.5s.3.2.5.2h14.6c.3 0 .6-.2.7-.4s.1-.6-.2-.8l-1.6-1.6-1.6-1.6 4.2-4.2 4.2-4.2c.3-.3.5-.7.5-1.1s-.2-.8-.5-1.1z"/></svg>