<svg baseProfile="basic" xmlns="http://www.w3.org/2000/svg" viewBox="0 0 256 256"><path fill="#F9943C" d="M141.7 123.4l-11.3-11.3-11.3-11.3c-1.1-1.1-2.5-1.6-3.8-1.6-1.4 0-2.8.5-3.8 1.6L97 115.3l-14.5 14.5-4.6-4.6-4.6-4.6c-.8-.8-1.8-.9-2.7-.5-.9.4-1.5 1.2-1.5 2.3v50.4c0 .7.3 1.3.8 1.8s1.1.8 1.8.8h50.4c1.1 0 1.9-.7 2.3-1.5.4-.9.2-1.9-.5-2.7l-5.5-5.5-5.5-5.5 14.5-14.5 14.5-14.5c1.1-1.1 1.6-2.5 1.6-3.8s-.7-2.9-1.8-4z"/><path fill="#263E4F" d="M136.4 167.4c-1.4 0-2.7-.5-3.8-1.6-2.1-2.1-2.1-5.5 0-7.5l32.6-32.6c2.1-2.1 5.5-2.1 7.5 0l3.6 3.6v-38h-38.1l3.6 3.6c2.1 2.1 2.1 5.5 0 7.5-2.1 2.1-5.5 2.1-7.5 0l-12.7-12.7c-1.5-1.5-2-3.8-1.2-5.8s2.8-3.3 4.9-3.3h56.3c2.9 0 5.3 2.4 5.3 5.3v56.3c0 2.2-1.3 4.1-3.3 4.9-2 .8-4.3.4-5.8-1.2l-8.9-8.9-28.8 28.8c-.9 1.1-2.3 1.6-3.7 1.6z"/></svg>