<svg baseProfile="basic" xmlns="http://www.w3.org/2000/svg" viewBox="0 0 256 256"><linearGradient id="a" gradientUnits="userSpaceOnUse" x1="33.874" y1="139.911" x2="232.733" y2="139.911"><stop offset="0" stop-color="#1880c3"/><stop offset=".025" stop-color="#177bbb"/><stop offset=".172" stop-color="#105e94"/><stop offset=".324" stop-color="#0a4773"/><stop offset=".479" stop-color="#063459"/><stop offset=".64" stop-color="#022747"/><stop offset=".809" stop-color="#01203d"/><stop offset="1" stop-color="#001d39"/></linearGradient><path fill="url(#a)" d="M200.1 96.6h-56c-.9 0-1.8.3-2.6.7-3.2 2-6.3 4-9.4 6.1-1.7 1.2-3.5 1.8-5.7 1.8h-10.6v78.2h79.3c2.5 0 3.7-1.5 3.6-3.7 0-1.1 0-2.2.1-3.3l1.2-18.9c.5-8.1.9-16.2 1.3-24.3.3-6.3.5-12.5.7-18.8 0-.5.1-1.1.1-1.6.3-4.4.5-8.8.7-13.2.3-1.9-.8-3-2.7-3z"/><linearGradient id="b" gradientUnits="userSpaceOnUse" x1="57.454" y1="139.916" x2="208.55" y2="139.916"><stop offset="0" stop-color="#1880c3"/><stop offset=".025" stop-color="#177bbb"/><stop offset=".172" stop-color="#105e94"/><stop offset=".324" stop-color="#0a4773"/><stop offset=".479" stop-color="#063459"/><stop offset=".64" stop-color="#022747"/><stop offset=".809" stop-color="#01203d"/><stop offset="1" stop-color="#001d39"/></linearGradient><path fill="url(#b)" d="M164 96.5h-19.8c-.9 0-1.8.3-2.6.7-3.2 2-6.3 4-9.4 6.1-1.7 1.2-3.5 1.8-5.7 1.8h-10.6v78.2h79.3c2.5 0 3.7-1.5 3.6-3.7 0-1.1 0-2.2.1-3.3l1.2-18.9c.5-8.1.9-16.2 1.3-24.3 0-.5 0-1 .1-1.4L164 96.5z"/><linearGradient id="c" gradientUnits="userSpaceOnUse" x1="84.056" y1="202.156" x2="85.063" y2="58.538"><stop offset="0" stop-color="#1880c3"/><stop offset=".025" stop-color="#177bbb"/><stop offset=".172" stop-color="#105e94"/><stop offset=".324" stop-color="#0a4773"/><stop offset=".479" stop-color="#063459"/><stop offset=".64" stop-color="#022747"/><stop offset=".809" stop-color="#01203d"/><stop offset="1" stop-color="#001d39"/></linearGradient><path fill="url(#c)" d="M115.9 105.1H56.1c-2.2 0-3.2 1-3.2 3.2.1 2.1.2 4.3.3 6.4.4 6.9.8 13.7 1.2 20.6.2 4 .4 8.1.7 12.1.4 6.2.9 12.5 1.2 18.7.3 4.8.5 9.5.7 14.3 0 .3.1.6.2.9.6 1.6 2 1.8 3.4 1.8h55.1v-78z"/><g opacity=".8"><linearGradient id="d" gradientUnits="userSpaceOnUse" x1="-207.4" y1="139.924" x2="485.319" y2="139.924"><stop offset="0" stop-color="#1880c3"/><stop offset=".065" stop-color="#1470ad"/><stop offset=".188" stop-color="#0e578a"/><stop offset=".32" stop-color="#09426c"/><stop offset=".458" stop-color="#053256"/><stop offset=".607" stop-color="#022646"/><stop offset=".775" stop-color="#011f3c"/><stop offset="1" stop-color="#001d39"/></linearGradient><path fill="url(#d)" d="M150.3 96.6h-6.1c-.9 0-1.8.3-2.6.7-3.2 2-6.3 4-9.4 6.1-1.7 1.2-3.5 1.8-5.7 1.8-11.2-.1-22.3 0-33.5 0H72.6l-18.8 18.1c.2 4.1.5 8.1.7 12.2.2 4 .4 8.1.7 12.1.4 6.2.9 12.5 1.2 18.7.3 4.8.5 9.5.7 14.3 0 .3.1.6.2.9.6 1.6 2 1.8 3.4 1.8h134.4c2.5 0 3.7-1.5 3.6-3.7 0-1.1 0-2.2.1-3.3l1.2-18.9c.2-4.1.5-8.3.7-12.4l-50.4-48.4z"/></g><g opacity=".8"><linearGradient id="e" gradientUnits="userSpaceOnUse" x1="-130.376" y1="139.902" x2="362.612" y2="139.902"><stop offset="0" stop-color="#1880c3"/><stop offset=".065" stop-color="#1470ad"/><stop offset=".188" stop-color="#0e578a"/><stop offset=".32" stop-color="#09426c"/><stop offset=".458" stop-color="#053256"/><stop offset=".607" stop-color="#022646"/><stop offset=".775" stop-color="#011f3c"/><stop offset="1" stop-color="#001d39"/></linearGradient><path fill="url(#e)" d="M200.1 96.6h-56c-.9 0-1.8.3-2.6.7-3.2 2-6.3 4-9.4 6.1-1.7 1.2-3.5 1.8-5.7 1.8-11.2-.1-22.3 0-33.5 0H56c-2.2 0-3.2 1-3.2 3.2.1 2.1.2 4.3.3 6.4l.9 15 57.2 53.5h9.1l82.2-76.9c.1-2.3.3-4.6.4-6.9.2-1.8-.9-2.9-2.8-2.9z"/><linearGradient id="f" gradientUnits="userSpaceOnUse" x1="-2.593" y1="118.434" x2="228.785" y2="118.434"><stop offset="0" stop-color="#1880c3"/><stop offset=".065" stop-color="#1470ad"/><stop offset=".188" stop-color="#0e578a"/><stop offset=".32" stop-color="#09426c"/><stop offset=".458" stop-color="#053256"/><stop offset=".607" stop-color="#022646"/><stop offset=".775" stop-color="#011f3c"/><stop offset="1" stop-color="#001d39"/></linearGradient><path fill="url(#f)" d="M115.9 140.3l46.8-43.8h-18.6c-.9 0-1.8.3-2.6.7-3.2 2-6.3 4-9.4 6.1-1.7 1.2-3.5 1.8-5.7 1.8-11.2-.1-22.3 0-33.5 0H78.1l37.8 35.2z"/></g><linearGradient id="g" gradientUnits="userSpaceOnUse" x1="68.463" y1="142.502" x2="98.793" y2="222.943"><stop offset="0" stop-opacity=".2"/><stop offset=".125" stop-color="#292929" stop-opacity=".238"/><stop offset=".359" stop-color="#727272" stop-opacity=".311"/><stop offset=".569" stop-color="#ababab" stop-opacity=".376"/><stop offset=".748" stop-color="#d4d4d4" stop-opacity=".431"/><stop offset=".888" stop-color="#eee" stop-opacity=".474"/><stop offset=".973" stop-color="#f7f7f7" stop-opacity=".5"/></linearGradient><path opacity=".7" fill="url(#g)" d="M56.2 105.1c-2.2 0-3.2 1-3.2 3.2.1 2.1.2 4.3.3 6.4.4 6.9.8 13.7 1.2 20.6.2 4 .4 8.1.7 12.1.4 6.2.9 12.5 1.2 18.7 6.1-20 12.3-40.5 18.9-61.1-6.3.1-12.7.1-19.1.1z"/><linearGradient id="h" gradientUnits="userSpaceOnUse" x1="155.34" y1="219.312" x2="182.535" y2="291.438"><stop offset="0" stop-opacity=".2"/><stop offset=".125" stop-color="#292929" stop-opacity=".238"/><stop offset=".359" stop-color="#727272" stop-opacity=".311"/><stop offset=".569" stop-color="#ababab" stop-opacity=".376"/><stop offset=".748" stop-color="#d4d4d4" stop-opacity=".431"/><stop offset=".888" stop-color="#eee" stop-opacity=".474"/><stop offset=".973" stop-color="#f7f7f7" stop-opacity=".5"/></linearGradient><path opacity=".7" fill="url(#h)" d="M55.6 153.9c.3 4.1.6 8.2.8 12.3.3 4.8.5 9.5.7 14.3 0 .3.1.6.2.9.6 1.6 2 1.8 3.4 1.8h134.4c2.5 0 3.7-1.5 3.6-3.7 0-1.1 0-2.2.1-3.3l1.2-18.9c.5-8.1.9-16.2 1.3-24.3.2-4.1.3-8.2.5-12.2-47.4 11.6-96.5 23-146.2 33.1z"/><linearGradient id="i" gradientUnits="userSpaceOnUse" x1="195.868" y1="93.027" x2="218.328" y2="152.596"><stop offset="0" stop-opacity=".2"/><stop offset=".125" stop-color="#292929" stop-opacity=".238"/><stop offset=".359" stop-color="#727272" stop-opacity=".311"/><stop offset=".569" stop-color="#ababab" stop-opacity=".376"/><stop offset=".748" stop-color="#d4d4d4" stop-opacity=".431"/><stop offset=".888" stop-color="#eee" stop-opacity=".474"/><stop offset=".973" stop-color="#f7f7f7" stop-opacity=".5"/></linearGradient><path opacity=".7" fill="url(#i)" d="M200.1 96.6h-7.6c3.1 8.4 6.3 16.9 9.4 25.7l.3-7.8c0-.5.1-1.1.1-1.6.3-4.4.5-8.8.7-13.2.1-2-1-3.1-2.9-3.1z"/><g><linearGradient id="j" gradientUnits="userSpaceOnUse" x1="213.275" y1="272.63" x2="-35.082" y2="-184.795"><stop offset="0" stop-color="#1880c3"/><stop offset=".065" stop-color="#1470ad"/><stop offset=".188" stop-color="#0e578a"/><stop offset=".32" stop-color="#09426c"/><stop offset=".458" stop-color="#053256"/><stop offset=".607" stop-color="#022646"/><stop offset=".775" stop-color="#011f3c"/><stop offset="1" stop-color="#001d39"/></linearGradient><path fill="url(#j)" d="M170 81.8h-50.6c-.4 0-.8 0-1.1-.1-.3-1.7-.4-3.2-.8-4.7-.5-2.2-3.2-4.3-5.9-4.3-10.5.1-21 0-31.5 0-4.7 0-9.5.1-14.2 0-3.5-.1-6.5 3-6.5 6.4.1 6.7 0 13.4 0 20.1 0 .5.1 1.1.1 1.6.3 0 .6.1.8.1h67.5c.4 0 .8-.1 1.1-.3 3.6-2.3 7.3-4.7 10.9-7.1 1.2-.8 2.4-1.2 3.9-1.2h24.2l2.1-10.5z"/><linearGradient id="k" gradientUnits="userSpaceOnUse" x1="39.907" y1="-71.352" x2="239.955" y2="271.348"><stop offset="0" stop-color="#1880c3"/><stop offset=".065" stop-color="#1470ad"/><stop offset=".188" stop-color="#0e578a"/><stop offset=".32" stop-color="#09426c"/><stop offset=".458" stop-color="#053256"/><stop offset=".607" stop-color="#022646"/><stop offset=".775" stop-color="#011f3c"/><stop offset="1" stop-color="#001d39"/></linearGradient><path fill="url(#k)" d="M195.1 92.4c.3-.1.7-.4.7-.7 0-2.4.1-4.7 0-7.1-.1-2.1-1.5-2.8-2.9-2.8h-73.4c-.4 0-.8 0-1.1-.1-.3-1.7-.4-3.2-.8-4.7-.5-2.2-3.2-4.3-5.9-4.3-10.5.1-21 0-31.5 0h-.1l-5 28.2H128c.4 0 .8-.1 1.1-.3 3.6-2.3 7.3-4.7 10.9-7.1 1.2-.8 2.4-1.2 3.9-1.2h50.4c.2.1.6.2.8.1z"/><linearGradient id="l" gradientUnits="userSpaceOnUse" x1="104.094" y1="-6.553" x2="213.102" y2="193.986"><stop offset="0" stop-color="#1880c3"/><stop offset=".065" stop-color="#1470ad"/><stop offset=".188" stop-color="#0e578a"/><stop offset=".32" stop-color="#09426c"/><stop offset=".458" stop-color="#053256"/><stop offset=".607" stop-color="#022646"/><stop offset=".775" stop-color="#011f3c"/><stop offset="1" stop-color="#001d39"/></linearGradient><path fill="url(#l)" d="M140 93.6c1.2-.8 2.4-1.2 3.9-1.2h50.4c.3 0 .6.1.9 0 .3-.1.7-.4.7-.7 0-2.4.1-4.7 0-7.1-.1-2.1-1.5-2.8-2.9-2.8h-73.4c-.4 0-.8 0-1.1-.1-.3-1.7-.4-3.2-.8-4.7-.3-1.3-1.3-2.5-2.6-3.3l-2.5 13.7 26.7 6.6c.2-.1.4-.3.7-.4z"/><linearGradient id="m" gradientUnits="userSpaceOnUse" x1="100.881" y1="123.004" x2="117.751" y2="167.746"><stop offset="0" stop-opacity=".2"/><stop offset=".125" stop-color="#292929" stop-opacity=".238"/><stop offset=".359" stop-color="#727272" stop-opacity=".311"/><stop offset=".569" stop-color="#ababab" stop-opacity=".376"/><stop offset=".748" stop-color="#d4d4d4" stop-opacity=".431"/><stop offset=".888" stop-color="#eee" stop-opacity=".474"/><stop offset=".973" stop-color="#f7f7f7" stop-opacity=".5"/></linearGradient><path opacity=".7" fill="url(#m)" d="M96.7 72.8H80.2c-4.7 0-9.5.1-14.2 0-3.5-.1-6.5 3-6.5 6.4.1 6.7 0 13.4 0 20.1 0 .5.1 1.1.1 1.6.3 0 .6.1.8.1h65c-9.5-9.4-19.1-18.8-28.7-28.2z"/></g><g><path fill="#FFF" d="M132.3 140.8l-3.8-3.8-3.8-3.8c-.4-.4-.8-.5-1.3-.5s-.9.2-1.3.5l-4.9 4.9-4.9 4.9-1.5-1.5-1.5-1.5c-.3-.3-.6-.3-.9-.2-.3.1-.5.4-.5.8v16.8c0 .2.1.5.3.6.2.2.4.3.6.3h16.8c.4 0 .7-.2.8-.5.1-.3.1-.6-.2-.9l-1.8-1.8-1.8-1.8 4.9-4.9 4.9-4.9c.4-.4.5-.8.5-1.3-.1-.6-.2-1.1-.6-1.4z"/><path fill="#F9943C" d="M130.5 155.5c-.5 0-.9-.2-1.3-.5-.7-.7-.7-1.8 0-2.5l10.9-10.9c.7-.7 1.8-.7 2.5 0l1.2 1.2V130H131l1.2 1.2c.7.7.7 1.8 0 2.5s-1.8.7-2.5 0l-4.3-4.3c-.5-.5-.7-1.3-.4-2 .3-.7.9-1.1 1.7-1.1h18.9c1 0 1.8.8 1.8 1.8V147c0 .7-.4 1.4-1.1 1.7-.7.3-1.4.1-2-.4l-3-3-9.7 9.7c-.2.3-.6.5-1.1.5z"/></g></svg>