<svg baseProfile="basic" xmlns="http://www.w3.org/2000/svg" viewBox="0 0 200 200"><path fill="#FFF" d="M111.6 96.1l-9.6-9.6-9.5-9.5c-.9-.9-2.1-1.4-3.3-1.4-1.2 0-2.4.5-3.3 1.4L73.6 89.3l-12.3 12.3-3.9-3.9-3.9-3.9c-.7-.7-1.6-.8-2.3-.5-.7.3-1.3 1-1.3 1.9V138c0 .6.2 1.1.6 1.5.4.4.9.6 1.5.6h42.6c.9 0 1.6-.6 1.9-1.3.3-.7.2-1.6-.5-2.3l-4.6-4.6-4.6-4.6L99.3 115l12.3-12.3c.9-.9 1.4-2.1 1.4-3.3 0-1.2-.5-2.4-1.4-3.3z"/><path fill="#F9943C" d="M107.1 133.4c-1.2 0-2.3-.4-3.2-1.3-1.8-1.8-1.8-4.6 0-6.4l27.6-27.6c1.8-1.8 4.6-1.8 6.4 0l3 3V68.9h-32.3l3.1 3.1c1.8 1.8 1.8 4.6 0 6.4-1.8 1.8-4.6 1.8-6.4 0L94.6 67.6c-1.3-1.3-1.7-3.2-1-4.9.7-1.7 2.3-2.8 4.2-2.8h47.7c2.5 0 4.5 2 4.5 4.5v47.7c0 1.8-1.1 3.5-2.8 4.2-1.7.7-3.6.3-4.9-1l-7.6-7.6-24.4 24.4c-.8.9-2 1.3-3.2 1.3z"/></svg>