<svg baseProfile="basic" xmlns="http://www.w3.org/2000/svg" viewBox="0 0 200 200"><radialGradient id="a" cx="100.5" cy="100.5" r="100.5" gradientTransform="scale(.995)" gradientUnits="userSpaceOnUse"><stop offset="0" stop-color="#1880c3"/><stop offset=".031" stop-color="#1572af"/><stop offset=".09" stop-color="#0f5b90"/><stop offset=".156" stop-color="#0a4874"/><stop offset=".231" stop-color="#07385e"/><stop offset=".318" stop-color="#042c4d"/><stop offset=".427" stop-color="#022342"/><stop offset=".578" stop-color="#001e3b"/><stop offset="1" stop-color="#001d39"/></radialGradient><path fill="url(#a)" d="M0 0h200v200H0z"/><linearGradient id="b" gradientUnits="userSpaceOnUse" x1="633.076" y1="2886.268" x2="1089.718" y2="2886.268" gradientTransform="matrix(0 -1 -1 0 3028.346 1021.442)"><stop offset="0" stop-color="#1880c3"/><stop offset=".025" stop-color="#177bbb"/><stop offset=".172" stop-color="#105e94"/><stop offset=".324" stop-color="#0a4773"/><stop offset=".479" stop-color="#063459"/><stop offset=".64" stop-color="#022747"/><stop offset=".809" stop-color="#01203d"/><stop offset="1" stop-color="#001d39"/></linearGradient><path fill="url(#b)" d="M200 200V45.3L153.8 0H84.2v200z"/><linearGradient id="c" gradientUnits="userSpaceOnUse" x1="684.86" y1="2886.268" x2="1037.934" y2="2886.268" gradientTransform="matrix(0 -1 -1 0 3028.346 1021.442)"><stop offset="0" stop-color="#1880c3"/><stop offset=".025" stop-color="#177bbb"/><stop offset=".172" stop-color="#105e94"/><stop offset=".324" stop-color="#0a4773"/><stop offset=".479" stop-color="#063459"/><stop offset=".64" stop-color="#022747"/><stop offset=".809" stop-color="#01203d"/><stop offset="1" stop-color="#001d39"/></linearGradient><path fill="url(#c)" d="M200 200V97L101 0H84.2v200z"/><linearGradient id="d" gradientUnits="userSpaceOnUse" x1="747.347" y1="2886.658" x2="975.327" y2="2886.658" gradientTransform="matrix(0 -1 -1 0 3028.346 1021.442)"><stop offset="0" stop-color="#1880c3"/><stop offset=".025" stop-color="#177bbb"/><stop offset=".172" stop-color="#105e94"/><stop offset=".324" stop-color="#0a4773"/><stop offset=".479" stop-color="#063459"/><stop offset=".64" stop-color="#022747"/><stop offset=".809" stop-color="#01203d"/><stop offset="1" stop-color="#001d39"/></linearGradient><path fill="url(#d)" d="M84.2 46.1V200H158l41.2-41.3z"/><linearGradient id="e" gradientUnits="userSpaceOnUse" x1="632.141" y1="18.696" x2="1088.784" y2="18.696" gradientTransform="rotate(-90 522.413 499.03)"><stop offset="0" stop-color="#1880c3"/><stop offset=".025" stop-color="#177bbb"/><stop offset=".172" stop-color="#105e94"/><stop offset=".324" stop-color="#0a4773"/><stop offset=".479" stop-color="#063459"/><stop offset=".64" stop-color="#022747"/><stop offset=".809" stop-color="#01203d"/><stop offset="1" stop-color="#001d39"/></linearGradient><path fill="url(#e)" d="M15.4 0L0 15.1V200h84.2V0z"/><g opacity=".6"><linearGradient id="f" gradientUnits="userSpaceOnUse" x1="-283.42" y1="2672.423" x2="68.521" y2="2672.423" gradientTransform="scale(1 -1) rotate(45 3474.16 1515.05)"><stop offset="0" stop-color="#1880c3"/><stop offset=".025" stop-color="#177bbb"/><stop offset=".172" stop-color="#105e94"/><stop offset=".324" stop-color="#0a4773"/><stop offset=".479" stop-color="#063459"/><stop offset=".64" stop-color="#022747"/><stop offset=".809" stop-color="#01203d"/><stop offset="1" stop-color="#001d39"/></linearGradient><path fill="url(#f)" d="M200 200V45.7L44.7 200z"/><linearGradient id="g" gradientUnits="userSpaceOnUse" x1="-221.19" y1="2684.294" x2="6.186" y2="2684.294" gradientTransform="scale(1 -1) rotate(45 3474.16 1515.05)"><stop offset="0" stop-color="#1880c3"/><stop offset=".025" stop-color="#177bbb"/><stop offset=".172" stop-color="#105e94"/><stop offset=".324" stop-color="#0a4773"/><stop offset=".479" stop-color="#063459"/><stop offset=".64" stop-color="#022747"/><stop offset=".809" stop-color="#01203d"/><stop offset="1" stop-color="#001d39"/></linearGradient><path fill="url(#g)" d="M44.7 200h121.7l-1.2-119.5z"/><linearGradient id="h" gradientUnits="userSpaceOnUse" x1="-177.804" y1="2695.29" x2="-37.36" y2="2695.29" gradientTransform="scale(1 -1) rotate(45 3474.16 1515.05)"><stop offset="0" stop-color="#1880c3"/><stop offset=".025" stop-color="#177bbb"/><stop offset=".172" stop-color="#105e94"/><stop offset=".324" stop-color="#0a4773"/><stop offset=".479" stop-color="#063459"/><stop offset=".64" stop-color="#022747"/><stop offset=".809" stop-color="#01203d"/><stop offset="1" stop-color="#001d39"/></linearGradient><path fill="url(#h)" d="M44.7 200h90.6l-.9-88.8z"/><linearGradient id="i" gradientUnits="userSpaceOnUse" x1="-178.778" y1="242.918" x2="-38.286" y2="242.918" gradientTransform="rotate(-45.001 -153.366 -12.48)"><stop offset="0" stop-color="#1880c3"/><stop offset=".025" stop-color="#177bbb"/><stop offset=".172" stop-color="#105e94"/><stop offset=".324" stop-color="#0a4773"/><stop offset=".479" stop-color="#063459"/><stop offset=".64" stop-color="#022747"/><stop offset=".809" stop-color="#01203d"/><stop offset="1" stop-color="#001d39"/></linearGradient><path fill="url(#i)" d="M34.1 110.9l-.2 89.1h10.8l89.1-88.1z"/></g><g opacity=".8"><linearGradient id="j" gradientUnits="userSpaceOnUse" x1="2168.795" y1="297.872" x2="3110.891" y2="297.872" gradientTransform="rotate(180 1362 198.936)"><stop offset="0" stop-color="#1880c3"/><stop offset=".065" stop-color="#1470ad"/><stop offset=".188" stop-color="#0e578a"/><stop offset=".32" stop-color="#09426c"/><stop offset=".458" stop-color="#053256"/><stop offset=".607" stop-color="#022646"/><stop offset=".775" stop-color="#011f3c"/><stop offset="1" stop-color="#001d39"/></linearGradient><path fill="url(#j)" d="M0 84.5V200h200v-83.7L84.2 0z"/><linearGradient id="k" gradientUnits="userSpaceOnUse" x1="2235.471" y1="258.664" x2="3044.214" y2="258.664" gradientTransform="rotate(180 1362 198.936)"><stop offset="0" stop-color="#1880c3"/><stop offset=".065" stop-color="#1470ad"/><stop offset=".188" stop-color="#0e578a"/><stop offset=".32" stop-color="#09426c"/><stop offset=".458" stop-color="#053256"/><stop offset=".607" stop-color="#022646"/><stop offset=".775" stop-color="#011f3c"/><stop offset="1" stop-color="#001d39"/></linearGradient><path fill="url(#k)" d="M0 160.3V200h200v-8.8L84.2 78.4z"/><linearGradient id="l" gradientUnits="userSpaceOnUse" x1="2311.184" y1="221.503" x2="2968.502" y2="221.503" gradientTransform="rotate(180 1362 198.936)"><stop offset="0" stop-color="#1880c3"/><stop offset=".065" stop-color="#1470ad"/><stop offset=".188" stop-color="#0e578a"/><stop offset=".32" stop-color="#09426c"/><stop offset=".458" stop-color="#053256"/><stop offset=".607" stop-color="#022646"/><stop offset=".775" stop-color="#011f3c"/><stop offset="1" stop-color="#001d39"/></linearGradient><path fill="url(#l)" d="M35 200h98.3l-49.1-47.3z"/></g><g opacity=".8"><linearGradient id="m" gradientUnits="userSpaceOnUse" x1="-244.502" y1="-404.944" x2="412.816" y2="-404.944" gradientTransform="translate(0 489.881)"><stop offset="0" stop-color="#1880c3"/><stop offset=".065" stop-color="#1470ad"/><stop offset=".188" stop-color="#0e578a"/><stop offset=".32" stop-color="#09426c"/><stop offset=".458" stop-color="#053256"/><stop offset=".607" stop-color="#022646"/><stop offset=".775" stop-color="#011f3c"/><stop offset="1" stop-color="#001d39"/></linearGradient><path fill="url(#m)" d="M200 56.5V0H0v87.5l84.2 82.4z"/><linearGradient id="n" gradientUnits="userSpaceOnUse" x1="-178.403" y1="-437.293" x2="346.717" y2="-437.293" gradientTransform="translate(0 489.881)"><stop offset="0" stop-color="#1880c3"/><stop offset=".065" stop-color="#1470ad"/><stop offset=".188" stop-color="#0e578a"/><stop offset=".32" stop-color="#09426c"/><stop offset=".458" stop-color="#053256"/><stop offset=".607" stop-color="#022646"/><stop offset=".775" stop-color="#011f3c"/><stop offset="1" stop-color="#001d39"/></linearGradient><path fill="url(#n)" d="M191.6 0H0v22.8l84.2 82.4z"/><linearGradient id="o" gradientUnits="userSpaceOnUse" x1="-118.029" y1="-466.84" x2="286.343" y2="-466.84" gradientTransform="translate(0 489.881)"><stop offset="0" stop-color="#1880c3"/><stop offset=".065" stop-color="#1470ad"/><stop offset=".188" stop-color="#0e578a"/><stop offset=".32" stop-color="#09426c"/><stop offset=".458" stop-color="#053256"/><stop offset=".607" stop-color="#022646"/><stop offset=".775" stop-color="#011f3c"/><stop offset="1" stop-color="#001d39"/></linearGradient><path fill="url(#o)" d="M131.2 0H37.1l47.1 46.1z"/></g><g><linearGradient id="p" gradientUnits="userSpaceOnUse" x1="-736.074" y1="2454.415" x2="-654.896" y2="2669.712" gradientTransform="matrix(.7436 .1367 -.2169 1.0517 1105.518 -2377.33)"><stop offset="0" stop-opacity=".2"/><stop offset=".125" stop-color="#292929" stop-opacity=".238"/><stop offset=".359" stop-color="#727272" stop-opacity=".311"/><stop offset=".569" stop-color="#ababab" stop-opacity=".376"/><stop offset=".748" stop-color="#d4d4d4" stop-opacity=".431"/><stop offset=".888" stop-color="#eee" stop-opacity=".474"/><stop offset=".973" stop-color="#f7f7f7" stop-opacity=".5"/></linearGradient><path opacity=".7" fill="url(#p)" d="M0 0v162.1C15.4 109.8 30.8 55.2 49.1 0H0z"/><linearGradient id="q" gradientUnits="userSpaceOnUse" x1="1878.359" y1="1233.459" x2="1956.1" y2="1439.64" gradientTransform="matrix(.2388 -.8289 .8575 .249 -1486.832 1252.126)"><stop offset="0" stop-opacity=".2"/><stop offset=".125" stop-color="#292929" stop-opacity=".238"/><stop offset=".359" stop-color="#727272" stop-opacity=".311"/><stop offset=".569" stop-color="#ababab" stop-opacity=".376"/><stop offset=".748" stop-color="#d4d4d4" stop-opacity=".431"/><stop offset=".888" stop-color="#eee" stop-opacity=".474"/><stop offset=".973" stop-color="#f7f7f7" stop-opacity=".5"/></linearGradient><path opacity=".7" fill="url(#q)" d="M0 0v7.2C8.7 4.7 17.4 2.3 26.1 0H0z"/><linearGradient id="r" gradientUnits="userSpaceOnUse" x1="2191.25" y1="1676.847" x2="2261.92" y2="1864.276" gradientTransform="matrix(-.4292 -.6224 .897 -.5903 -345.926 2384.03)"><stop offset="0" stop-opacity=".2"/><stop offset=".125" stop-color="#292929" stop-opacity=".238"/><stop offset=".359" stop-color="#727272" stop-opacity=".311"/><stop offset=".569" stop-color="#ababab" stop-opacity=".376"/><stop offset=".748" stop-color="#d4d4d4" stop-opacity=".431"/><stop offset=".888" stop-color="#eee" stop-opacity=".474"/><stop offset=".973" stop-color="#f7f7f7" stop-opacity=".5"/></linearGradient><path opacity=".7" fill="url(#r)" d="M0 200h200V77.8C135.1 94.2 68 110.5 0 124.9V200z"/><linearGradient id="s" gradientUnits="userSpaceOnUse" x1="3005.321" y1="3624.3" x2="3081.077" y2="3825.22" gradientTransform="matrix(-.7549 .4172 -.4303 -.7824 4054.646 1649.876)"><stop offset="0" stop-opacity=".2"/><stop offset=".125" stop-color="#292929" stop-opacity=".238"/><stop offset=".359" stop-color="#727272" stop-opacity=".311"/><stop offset=".569" stop-color="#ababab" stop-opacity=".376"/><stop offset=".748" stop-color="#d4d4d4" stop-opacity=".431"/><stop offset=".888" stop-color="#eee" stop-opacity=".474"/><stop offset=".973" stop-color="#f7f7f7" stop-opacity=".5"/></linearGradient><path opacity=".7" fill="url(#s)" d="M200 0h-31.7c10.2 28.5 21.1 58.4 31.7 89.9V0z"/></g><g><path fill="#FFF" d="M112.1 97.7l-9.5-9.5-9.6-9.6c-.9-.9-2.1-1.3-3.2-1.3-1.2 0-2.3.4-3.2 1.3L74.3 90.8 62 103.1l-3.9-3.9-3.9-3.9c-.7-.7-1.6-.8-2.3-.5-.7.3-1.3 1-1.3 1.9v42.4c0 .6.2 1.1.6 1.5s.9.6 1.5.6h42.4c.9 0 1.6-.6 1.9-1.3.3-.7.2-1.6-.5-2.3l-4.6-4.6-4.6-4.6 12.2-12.2 12.2-12.2c.9-.9 1.3-2.1 1.3-3.2s0-2.2-.9-3.1z"/><path fill="#F9943C" d="M107.6 134.8c-1.2 0-2.3-.4-3.2-1.3-1.8-1.8-1.8-4.6 0-6.4l27.5-27.5c1.8-1.8 4.6-1.8 6.4 0l3 3V70.5h-32.1l3.1 3.1c1.8 1.8 1.8 4.6 0 6.4-1.8 1.8-4.6 1.8-6.4 0L95.1 69.2c-1.3-1.3-1.7-3.2-1-4.9.7-1.7 2.3-2.8 4.2-2.8h47.5c2.5 0 4.5 2 4.5 4.5v47.5c0 1.8-1.1 3.5-2.8 4.2-1.7.7-3.6.3-4.9-1l-7.5-7.5-24.3 24.3c-.9.8-2 1.3-3.2 1.3z"/></g></svg>