<svg baseProfile="basic" xmlns="http://www.w3.org/2000/svg" viewBox="0 0 1144 261"><path fill="#3B3B3B" d="M1105 261H39c-21.5 0-39-17.5-39-39V39C0 17.5 17.5 0 39 0h1068.9c20 0 36.1 16.2 36.1 36.1V222c0 21.5-17.5 39-39 39z"/><path fill="#7E61A5" d="M137.2 227.7h-.2C83.1 215 57 165.1 59.9 124.6v-.1c.9-12.9 4.8-24.4 11.2-33.4 15-20.5 35.6-32 58.2-32.3 17.5-.1 34.4 6.2 47.6 17.6 13.6 11.8 21.6 27.5 22.3 44.2 0 .4-.3.7-.6.8h-.1c-.3 0-.7-.2-.8-.5-.9-2.7-2-5.2-3.4-7.7-7-12.4-20.3-20-34.5-19.8-3.4 0-6.7.6-10 1.5h-.2l-.2.1h-.1c-4.5 1.4-8.6 3.7-12.2 6.8l-.1.1c-28.1 17.9-42.7 43.9-40 71.1 2.3 24 18 44.5 40.4 53.2.4.1.6.6.5 1 0 .3-.3.5-.7.5z"/><path fill="#545CA3" d="M161.7 232.7c-8.8.1-17.6-1.4-25.8-4.5-23-8.8-39-29.9-41.4-54.5-2.8-27.9 12-54.3 40.7-72.6.1-.1.3-.1.4-.1.2 0 .5.1.6.3.2.3.2.8-.1 1-4.2 3.7-7.5 8.2-9.7 13.3-4.1 12.5-4 26.1.4 38.5 9.7 27.4 37.4 46.3 67.3 46 4.1-.1 8.2-.5 12.2-1.2s7.8-1.8 11.6-3.2c.3-.1.6 0 .8.2 2.7 2.8 5.5 5.7 8.3 8.5.2.2.2.4.2.6 0 .2-.1.4-.3.6-21.4 17.5-43.9 26.9-65.2 27.1z"/><path fill="#B8D7FA" d="M195.2 200.2c-30.6.4-58.9-18.9-68.8-47-4.6-12.8-4.7-26.7-.4-39.6v-.1c2.3-5.3 5.8-10.1 10.2-13.9 3.7-3.2 8-5.7 12.7-7.1.2-.1.4-.1.6-.2 3.4-1 6.8-1.5 10.3-1.5 14.8-.2 28.6 7.7 35.9 20.6 1.4 2.5 2.6 5.2 3.5 8 .1.1.1.3.2.5v.2c1.8 36 6 51.3 20.5 74.5.1.2.1.5 0 .8-.1.2-.3.3-.5.4-3.8 1.4-7.8 2.5-11.8 3.2-4.1.8-8.3 1.2-12.4 1.2z"/><path fill="#B46FBB" d="M325.6 202.1c-36.4.4-68.5-27.9-69.9-61.8 0-.4.3-.7.6-.8h.1c.3 0 .7.2.8.5.9 2.9 2.2 5.8 3.8 8.4 7.2 12 20.2 19.4 34.2 19.2 3.7 0 7.4-.6 10.9-1.8H306.4c3.7-1.3 7.2-3.1 10.3-5.6l.1-.1c28.8-17.5 43.8-43.4 41.4-71.1-2.2-24.4-18-45.4-40.7-54.3-.4-.2-.6-.6-.4-1 .1-.3.4-.5.7-.5h.2c24.3 5.8 44.6 19.4 58.7 39.5 12.4 17.6 19.2 39.4 18.7 59.8-.4 14.4-4.3 27.3-11.4 37.2-15.1 20.7-35.8 32.1-58.4 32.4z"/><path fill="#E1A1CA" d="M317.2 161.5c-.4 0-.8-.3-.8-.7 0-.2.1-.5.3-.6 4.8-3.8 8.5-8.7 11-14.3 4.1-12.6 4-26.2-.5-38.6-9.7-27.4-37.4-46.3-67.3-45.9-4 0-8 .4-12 1.1-4 .7-8 1.8-11.9 3.2h-.2c-.2 0-.4-.1-.6-.2l-8.1-8.2c-.2-.1-.2-.4-.2-.6v-.3c0-.2.1-.5.3-.6 21.5-17.4 44-26.7 65.1-26.9 8.8-.1 17.6 1.4 25.8 4.5 23.3 9.2 39.4 30.7 41.7 55.6 2.5 28.3-12.8 54.7-42.2 72.5h-.4z"/><path fill="#F1D2FA" d="M295.6 169.2c-14.6.1-28.1-7.5-35.5-20-1.6-2.7-3-5.7-3.9-8.7l-.1-.4v-.2c-1.8-36.1-6-51.4-20.5-74.5-.1-.2-.1-.5 0-.8.1-.2.3-.3.5-.4 3.9-1.4 8-2.5 12.1-3.2 4-.7 8.1-1.2 12.2-1.2 30.6-.4 58.8 18.9 68.8 46.9 4.6 12.8 4.7 26.7.5 39.6v.1c-2.5 5.8-6.4 11-11.4 15-3.2 2.6-6.8 4.5-10.7 5.8-.1 0-.2.1-.3.1-3.9 1.3-7.8 1.9-11.7 1.9z"/><path fill="#AC9CD2" d="M227.4 205v-.2h-.2c-2.8-2.8-5.5-5.6-8.3-8.5-14.2-22.7-18.8-37.8-20.6-74.9-.1-.2-.1-.3-.2-.5-2.5-54.7-82.4-90-126.7-29.1-6.5 9.1-10.2 20.6-11.1 33C63.2 41.9 161.2-3.8 228.2 54.4v.1l-.2.1.2.2 8.1 8.3c14.2 22.7 18.8 37.8 20.6 74.9l.1.4c2.4 54.7 82.4 90 126.7 29.1 7.1-9.9 10.9-22.8 11.3-36.7.1-2.5.1-5 0-7.6 6.3 89.9-97.6 142.5-167.6 81.8z"/><g fill="#E6E6E6"><path d="M431.9 181.3L464 82.6h20.5l32.1 98.7h-18.4l-7.7-26.7h-33.2l-7.7 26.7h-17.7zm33-52.5l-3.5 12.1h25.2l-3.5-12.1c-1.6-5.2-3.1-10.6-4.6-16.1-1.5-5.5-2.9-11-4.3-16.4h-.6l-4.2 16.5c-1.4 5.4-2.9 10.8-4.5 16zM544.3 183.1c-6.2 0-10.6-1.9-13.1-5.6-2.5-3.7-3.8-8.8-3.8-15.2V74.8h17.4v88.4c0 2.1.4 3.6 1.2 4.5.8.9 1.7 1.3 2.6 1.3h1.1c.4 0 .9-.1 1.6-.3l2.3 13c-2.5.9-5.5 1.4-9.3 1.4zM585.1 183.1c-6.2 0-10.6-1.9-13.1-5.6-2.5-3.7-3.8-8.8-3.8-15.2V74.8h17.4v88.4c0 2.1.4 3.6 1.2 4.5.8.9 1.7 1.3 2.6 1.3h1.1c.4 0 .9-.1 1.6-.3l2.3 13c-2.4.9-5.4 1.4-9.3 1.4zM650 183.1c-6.2 0-12.1-1.1-17.5-3.3-5.4-2.2-10.1-5.5-14.1-9.8-4-4.3-7.1-9.7-9.4-16-2.3-6.3-3.5-13.6-3.5-21.7 0-8 1.2-15.3 3.5-21.7 2.4-6.4 5.6-11.8 9.7-16.2 4.1-4.4 8.9-7.8 14.3-10.1 5.5-2.3 11.3-3.5 17.6-3.5 6.2 0 11.8 1.3 16.6 3.8 4.8 2.5 8.8 5.4 11.9 8.8l-9.4 11.3c-2.6-2.6-5.4-4.7-8.4-6.3-3-1.6-6.4-2.3-10.3-2.3-4 0-7.7.8-11.1 2.5-3.4 1.7-6.3 4-8.8 7.1-2.5 3.1-4.4 6.8-5.7 11.2-1.4 4.4-2 9.4-2 14.9 0 11.3 2.4 20.1 7.3 26.5 4.9 6.4 11.5 9.6 19.8 9.6 4.4 0 8.3-.9 11.8-2.8 3.4-1.9 6.5-4.3 9.4-7.3l9.4 11c-4 4.6-8.6 8.2-13.8 10.6-5.2 2.5-10.9 3.7-17.3 3.7zM696 181.3V74.8h17.4v27.5l-.6 14.3c3.1-2.9 6.6-5.5 10.3-7.8 3.8-2.3 8.2-3.4 13.4-3.4 7.9 0 13.7 2.5 17.3 7.6 3.6 5.1 5.4 12.3 5.4 21.8v46.5h-17.3v-44.2c0-6.1-.9-10.5-2.7-13-1.8-2.5-4.8-3.8-8.9-3.8-3.2 0-6.1.8-8.5 2.3-2.5 1.6-5.3 3.8-8.4 6.9v51.7H696zM798.2 183.1c-6.5 0-11.8-2-15.8-6s-6-9.2-6-15.8c0-3.9.8-7.4 2.5-10.5 1.7-3.1 4.3-5.7 7.8-7.9 3.6-2.2 8.1-4.1 13.6-5.6s12-2.7 19.7-3.5c-.1-1.9-.4-3.7-.8-5.5-.5-1.8-1.2-3.3-2.3-4.7-1.1-1.4-2.4-2.4-4.1-3.2-1.7-.8-3.8-1.1-6.3-1.1-3.6 0-7.2.7-10.6 2.1-3.5 1.4-6.9 3.1-10.2 5.1l-6.3-11.6c4.1-2.6 8.8-4.9 13.9-6.8 5.1-1.9 10.7-2.9 16.6-2.9 9.3 0 16.2 2.7 20.7 8.2 4.6 5.5 6.9 13.4 6.9 23.8v43.9h-14.3L822 173h-.6c-3.3 2.8-6.9 5.2-10.6 7.1-4.1 2-8.2 3-12.6 3zm5.6-13.6c3 0 5.8-.7 8.2-2.1 2.5-1.4 5.1-3.4 7.9-6v-16.6c-5 .6-9.3 1.4-12.7 2.4-3.4 1-6.2 2.1-8.3 3.4-2.1 1.3-3.6 2.7-4.5 4.3-.9 1.6-1.4 3.3-1.4 5.1 0 3.3 1 5.7 3 7.2 2.1 1.6 4.6 2.3 7.8 2.3zM858.1 181.3v-74.1h14.3l1.2 10h.6c3.3-3.2 6.9-6 10.8-8.3 3.9-2.3 8.4-3.5 13.5-3.5 7.9 0 13.7 2.5 17.3 7.6 3.6 5.1 5.4 12.3 5.4 21.8v46.5h-17.3v-44.2c0-6.1-.9-10.5-2.7-13-1.8-2.5-4.8-3.8-8.9-3.8-3.2 0-6.1.8-8.5 2.3-2.5 1.6-5.3 3.8-8.4 6.9v51.7h-17.3zM968.4 214c-4.4 0-8.5-.4-12.3-1.2-3.8-.8-7-2-9.7-3.6-2.7-1.6-4.9-3.6-6.4-6-1.6-2.4-2.3-5.2-2.3-8.4 0-3.1.9-6 2.7-8.7 1.8-2.7 4.4-5.1 7.8-7.2v-.6c-1.9-1.2-3.5-2.8-4.8-4.8-1.3-2-1.9-4.5-1.9-7.5 0-2.9.8-5.6 2.5-7.9 1.7-2.4 3.5-4.3 5.7-5.8v-.6c-2.5-1.9-4.8-4.6-6.7-7.9-2-3.4-2.9-7.3-2.9-11.7 0-4.2.8-8 2.4-11.3 1.6-3.3 3.7-6.1 6.4-8.4 2.7-2.3 5.8-4 9.3-5.1 3.5-1.2 7.2-1.7 11.2-1.7 2 0 3.9.2 5.8.5 1.9.4 3.5.8 5.1 1.3h26.6V120h-13.6c1.2 1.4 2.2 3.2 3 5.4.8 2.2 1.2 4.6 1.2 7.2 0 4.1-.7 7.7-2.2 10.9-1.5 3.1-3.4 5.7-6 7.8-2.5 2.1-5.5 3.7-8.9 4.8-3.4 1.1-7.1 1.7-11 1.7-1.6 0-3.3-.2-5-.5-1.7-.3-3.4-.8-5.1-1.5-1.1 1-2 2-2.6 3-.7 1-1 2.4-1 4.1 0 2.1.9 3.8 2.6 5 1.8 1.2 4.9 1.8 9.4 1.8h13.1c9 0 15.7 1.4 20.3 4.3 4.6 2.9 6.9 7.5 6.9 14 0 3.6-.9 7-2.8 10.3-1.9 3.2-4.5 6-7.9 8.3-3.4 2.3-7.6 4.1-12.4 5.5-5.1 1.2-10.5 1.9-16.5 1.9zm2.7-11.3c6 0 10.9-1.2 14.6-3.5 3.7-2.4 5.5-5.2 5.5-8.4 0-2.9-1.1-4.9-3.4-5.9s-5.5-1.5-9.7-1.5H968c-4 0-7.4-.4-10.1-1.1-3.8 2.9-5.7 6.2-5.7 9.8 0 3.3 1.7 5.9 5.1 7.8 3.2 1.9 7.8 2.8 13.8 2.8zm-1.8-55.8c3.5 0 6.5-1.3 9.1-3.8 2.5-2.6 3.8-6.3 3.8-11.1 0-4.6-1.2-8.2-3.7-10.8-2.5-2.6-5.5-3.8-9.1-3.8-3.6 0-6.7 1.3-9.2 3.8-2.5 2.5-3.8 6.1-3.8 10.9 0 4.8 1.3 8.5 3.8 11.1 2.4 2.4 5.4 3.7 9.1 3.7zM1050.3 183.1c-5.1 0-9.9-.9-14.3-2.6-4.4-1.8-8.3-4.3-11.6-7.6-3.3-3.3-5.9-7.4-7.8-12.1-1.9-4.8-2.8-10.2-2.8-16.4 0-6 1-11.5 2.9-16.3 1.9-4.8 4.5-8.9 7.6-12.2 3.2-3.3 6.8-5.9 10.9-7.7 4.1-1.8 8.3-2.7 12.7-2.7 5 0 9.5.9 13.3 2.6 3.8 1.7 7 4.1 9.6 7.2 2.6 3.1 4.5 6.8 5.8 11.2 1.3 4.3 2 9.1 2 14.2 0 1.7-.1 3.3-.2 4.8-.2 1.5-.3 2.7-.5 3.6h-47.1c.8 6.6 3.1 11.7 7 15.3 3.9 3.6 8.8 5.4 14.9 5.4 3.2 0 6.2-.5 9-1.4 2.8-1 5.5-2.3 8.2-4l5.9 10.9c-3.5 2.3-7.4 4.2-11.8 5.7-4.5 1.3-9 2.1-13.7 2.1zm-19.8-45.9h32.9c0-5.7-1.2-10.2-3.7-13.5-2.5-3.3-6.3-4.9-11.4-4.9-4.4 0-8.3 1.6-11.6 4.7-3.3 3.1-5.4 7.7-6.2 13.7z"/></g></svg>