<svg baseProfile="basic" xmlns="http://www.w3.org/2000/svg" viewBox="0 0 1144 261"><linearGradient id="a" gradientUnits="userSpaceOnUse" x1="571.95" y1="0" x2="571.95" y2="261"><stop offset="0" stop-color="#94b85a"/><stop offset=".572" stop-color="#90b55b"/><stop offset="1" stop-color="#87ae5c"/></linearGradient><path fill="url(#a)" d="M1104.9 261H39c-21.5 0-39-17.5-39-39V39C0 17.5 17.5 0 39 0h1065.9c21.5 0 39 17.5 39 39v183c0 21.5-17.5 39-39 39z"/><linearGradient id="b" gradientUnits="userSpaceOnUse" x1="241.646" y1="247" x2="241.646" y2="14"><stop offset="0" stop-color="#1c1c1c"/><stop offset="1" stop-color="#4b4b4b"/></linearGradient><path fill="url(#b)" d="M469.3 247H41.1c-15 0-27.1-12.1-27.1-27.1V41.1C14 26.1 26.1 14 41.1 14h428.2v233z"/><linearGradient id="c" gradientUnits="userSpaceOnUse" x1="799.596" y1="247" x2="799.596" y2="14"><stop offset="0" stop-color="#bcbcbc"/><stop offset="1" stop-color="#f3f3f3"/></linearGradient><path fill="url(#c)" d="M1102.8 247H469.3V14h633.5c15 0 27.1 12.1 27.1 27.1v178.8c0 15-12.1 27.1-27.1 27.1z"/><g fill="#FFF"><path d="M153.1 155.3c0 8.8-1.2 15.9-3.7 21.1-2.4 5.3-5.6 9.2-9.4 12-3.9 2.7-8.2 4.6-12.9 5.5-4.7.9-9.4 1.3-14 1.3H67.9V66.7h49.8c6.4 0 11.6 1.1 15.7 3.2s7.3 5 9.7 8.4c2.4 3.5 4 7.3 4.9 11.5.9 4.2 1.2 8.4 1.1 12.4-.2 11.7-3.1 19.6-8.9 23.8 3.7 1.8 6.8 5 9.2 9.7 2.5 4.8 3.7 11.3 3.7 19.6zm-27.9-52.6c0-4.1-.5-7.1-1.4-9-1-2-2.9-3-5.7-3H92.3v25.6h23.5c3.6 0 6.1-1.2 7.4-3.7 1.3-2.4 2-5.7 2-9.9zm3.4 52.8c0-3.6-.3-6.4-.9-8.5-.6-2.1-1.3-3.7-2.2-4.9-.9-1.2-1.9-2-3-2.3-1.1-.4-2.2-.5-3.2-.5h-27V170h24.9c4.3 0 7.3-1.1 8.9-3.4 1.7-2.3 2.5-6 2.5-11.1zM250.7 195.2h-81.6V66.7h80.2v24.9h-55.8v23.6h51.4v24.9h-51.4V170h57.3v25.2zM345.2 157.3c0 27.1-14.6 40.6-43.7 40.6-14.1 0-24.9-4-32.3-12-7.4-8-11.1-20.3-11.1-37h23.6c.2 3.7.6 7.1 1.3 10.2.7 3.1 1.8 5.8 3.4 8 1.6 2.2 3.7 3.9 6.2 5.2 2.6 1.3 5.9 1.9 9.9 1.9 6.6 0 11.4-1.2 14.3-3.7 3-2.4 4.4-7.2 4.4-14.2 0-3.7-.6-6.4-1.8-8-1.2-1.6-3-2.9-5.5-3.8-2.9-1.1-6.3-1.9-10.4-2.5-4.1-.6-8.7-1.6-13.8-3-4-1.2-7.7-2.5-11.2-4-3.4-1.5-6.4-3.6-9-6.4-2.6-2.7-4.6-6.3-6-10.7-1.4-4.4-2.1-10.2-2.1-17.4 0-5.2.6-9.8 1.9-13.7 1.3-3.9 3-7.2 5.2-9.8 2.1-2.7 4.6-4.9 7.4-6.5 2.8-1.7 5.7-3 8.7-3.8 3-.9 5.9-1.5 8.9-1.8 3-.3 5.7-.4 8.2-.4 8.4 0 15.2 1.3 20.5 3.9 5.2 2.6 9.3 6 12.2 10.2 2.9 4.2 4.9 8.9 5.9 14.1 1 5.3 1.5 10.4 1.5 15.6h-23.2c-.4-2.1-.7-4.5-.9-7.2-.2-2.6-.8-4.9-1.7-6.8-.8-1.7-2.2-3.2-4.2-4.6-2.1-1.4-5.3-2.1-9.7-2.1-3.4 0-6.3.3-8.4.9-2.2.6-3.9 1.5-5.2 2.7-1.2 1.2-2.1 2.7-2.6 4.7-.5 1.9-.7 4.2-.7 6.8 0 3.1.7 5.3 2.1 6.7 1.4 1.4 3.9 2.5 7.7 3.5 3.9 1.1 7.9 2 11.9 2.7 4 .7 7.9 1.6 11.6 2.6 3.7 1 7.2 2.4 10.5 4 3.2 1.7 6.1 4 8.5 6.9 2.4 2.9 4.3 6.7 5.7 11.3 1.3 4.4 2 10.1 2 16.9zM433.9 91.6h-29.3v103.6h-24.3V91.6h-29.4V66.7h83v24.9z"/></g><g fill="#363636"><path d="M591.4 148c-.6 6.7-1.7 13-3.5 19.1-1.8 6-4.4 11.3-7.8 15.8-3.4 4.5-7.9 8.1-13.3 10.8-5.4 2.7-12 4-19.9 4-9 0-16.5-1.5-22.8-4.6-6.2-3-11.3-7.5-15.1-13.2-3.9-5.8-6.7-12.9-8.4-21.4-1.8-8.5-2.6-18.1-2.6-29 0-10 1-19.1 2.9-27.1 1.9-8.1 4.9-14.9 8.9-20.6 4-5.7 9.1-10 15.2-13.1 6.1-3 13.4-4.6 21.9-4.6 8.6 0 15.6 1.3 21 4s9.8 6.2 13 10.5c3.2 4.3 5.6 9.2 7 14.7 1.4 5.5 2.4 11 3 16.5h-23c-.6-2.9-1.2-5.6-1.9-8.2-.7-2.6-1.7-4.9-3.1-6.8-1.4-1.9-3.2-3.4-5.6-4.6-2.3-1.1-5.5-1.7-9.4-1.7-4.8 0-8.8.8-12 2.3-3.2 1.6-5.9 4.1-7.9 7.5-2 3.5-3.4 8-4.3 13.7-.9 5.7-1.3 12.6-1.3 20.8 0 8.4.6 15.1 1.8 20.3 1.2 5.2 2.9 9.2 5 12.2 2.1 2.9 4.8 4.9 7.9 6 3.1 1.1 6.5 1.6 10.4 1.6 3.9 0 7-.6 9.3-1.8 2.3-1.2 4.1-2.9 5.4-5.1 1.3-2.2 2.4-4.8 3.1-7.9.8-3 1.5-6.5 2.3-10.3h23.8zM689 195.2h-24.3v-55.5h-36.6v55.5h-24.3V66.7h24.3v48h36.6v-48H689v128.5zM791.4 195.2H766l-6.7-26.5H727l-6.6 26.5h-24.6L731 66.7h24.1l36.3 128.5zm-38.1-50.4l-10-41.3-10.3 41.3h20.3zM862.8 195.2L825.7 117v78.2h-24.3V66.7h23.9l37.4 77.7V66.7h24.1v128.5h-24zM996.2 195.2h-19.7v-13.1c-1.4 3.1-3.2 5.6-5.4 7.6-2.1 2-4.5 3.5-7 4.7-2.5 1.1-5.1 1.9-7.9 2.3-2.7.4-5.4.6-7.9.6-9 0-16.4-1.7-22.4-5.2s-10.8-8.2-14.5-14.3c-3.7-6.1-6.3-13.3-7.8-21.6s-2.3-17.2-2.3-26.8c0-43.5 16.4-65.3 49.1-65.3 8.1 0 14.9 1.3 20.6 3.9 5.6 2.6 10.2 6.1 13.6 10.5 3.5 4.4 6 9.3 7.5 14.9s2.3 11.4 2.3 17.4h-24.8c0-2.6-.2-5.3-.5-8.1-.3-2.7-1.1-5.2-2.4-7.3-1.3-2.1-3.2-3.9-5.8-5.3-2.6-1.4-6.1-2.1-10.6-2.1s-8.3.7-11.4 2.2c-3.1 1.5-5.6 3.8-7.6 7.1-2 3.2-3.4 7.4-4.3 12.5-.9 5.1-1.4 11.3-1.4 18.4 0 7.9.4 14.6 1.1 20.2.8 5.6 2.1 10.1 4.1 13.6 2 3.5 4.5 6 7.8 7.6 3.2 1.6 7.3 2.4 12.3 2.4 2.9 0 5.6-.4 8.1-1.3 2.6-.9 4.8-2.3 6.7-4.2 1.9-1.9 3.4-4.4 4.4-7.3 1-3 1.5-6.6 1.4-10.7H949v-23.6h47.3v70.3zM1092.9 195.2h-81.4V66.7h80v24.9h-55.7v23.6h51.3v24.9h-51.3V170h57.1v25.2z"/></g></svg>