<svg baseProfile="basic" xmlns="http://www.w3.org/2000/svg" viewBox="0 0 1143.9 347.1"><path fill="#DD4E60" d="M37.5 347.1V214.5h1064.8v132.6H37.5z"/><g fill="#FFF"><path d="M520.5 250.1c-12.9-19.3-36.3-25.5-55.8-15.2-18.9 9.9-27.6 33-19.9 53.2 7.7 20.4 29.8 31.5 51.1 25.8 10.9-2.9 20.3-10.8 25.8-20.7 2.6-4.7 4.7-10.2 4.9-15.2-8.7 0-16.3.1-16.3.1-.6 3-3.8 9-6.5 12.2-6.6 7.6-17.8 10.9-27.2 7.3-10.9-3.8-18.3-15.9-16.8-27.6 1.7-12.9 10.4-21.9 22.1-23.3 11.2-1.3 19.1 4.4 25.9 12.6 4.4-3.2 8.4-6.1 12.7-9.2zM937 303.2c5.6 7 12.6 10.4 20.6 11.8 15.5 2.8 30.6-7.4 33.2-22.3 2.7-15.8-6.6-28.1-23.3-30.8-2.7-.4-5.4-.8-8-1.6-3.9-1.3-6.2-4-5.2-8.3 1-4.4 4.3-5.8 8.3-5.2 2.8.4 5.5 1.9 8.8 3 3.7-2.8 7.8-5.9 11.9-8.9-7.7-9.7-20-13.2-30.3-8.9-10.4 4.3-16.3 13.8-15.3 24.8 1 10.5 9.1 18.1 21.6 20.3 2.2.4 4.5.7 6.6 1.5 5.9 2.3 8.7 6.9 7 13-1.7 6.3-6.8 8.1-12.9 7.2-3.7-.5-6.5-3.1-9.7-5.4-4.4 3.2-8.7 6.4-13.3 9.8zM934.8 232.1l-17.6-.2-23.3 47.7-25.2-48.1-19.5-.1 17.5 33.7-8 14.7-25-48.5-19.6.1 44 83.9 17.1-33.9 18 33.9zM670.2 313.6h17.1v-46.8l58 48.1v-83.2h-16.8v47.4l-58.3-48.8zM306.2 314.8v-82.6h-16.4v47.1l-58.2-48.7v83h16.6v-47l58 48.2zM538.8 232v81.5h16.6V278h37.9v35.6h16.4V232h-16.6v29.9h-38.3V232zM430.8 262.2h-30.7v-15.4h26.3v-14.9h-42.9v81.7h51v-15h-34.2v-21h30.5zM778 277.4h30.3v-15.1H778v-15.6h25.5v-14.9h-42.7v81.6h50.4v-14.7H778zM158.8 277.7h30.4v-15.5h-30.1v-15.4h25.5v-14.9h-42.9v81.6h17.1zM374.3 247v-14.9h-58v15h20.1v66.5h16.8V247zM200.2 232v82.1l16.2-.9V232z"/></g><g><path fill="#DD4E60" d="M1088.2 193.7c-10.8-.4-18.8-8.8-18.5-19.4.3-11.1 8.9-19.3 19.9-18.9 11 .4 19.2 9.1 18.8 20-.3 11-8.9 18.8-20.2 18.3z"/><g fill="#1B2C70"><path d="M256.9 61.1c-36.6 0-66.4 29.7-66.4 66.4s29.7 66.4 66.4 66.4 66.4-29.7 66.4-66.4c-.1-36.6-29.8-66.4-66.4-66.4zm0 97.2c-16.6 0-30.1-13.8-30.1-30.8s13.5-30.8 30.1-30.8 30.1 13.8 30.1 30.8-13.5 30.8-30.1 30.8zM856.1 3.3v69.2c-8.5-7.1-18.8-11.3-29.8-11.3-36.2 0-62.9 30.1-62.9 66.8 0 36.7 26.8 66 62.9 66 11 0 21.2-4.2 29.8-11.3v7.6H892V3.3h-35.9zm-27.4 155c-16.4 0-29.7-13.8-29.7-30.8s13.3-30.8 29.7-30.8c16.1 0 29.2 13.8 29.2 30.8s-13.1 30.8-29.2 30.8zM1026.3 63.8v8.3c-8.5-6.9-18.7-11-29.5-11-35.7 0-63.5 29.7-63.5 66.4s27.8 66.4 63.5 66.4c10.8 0 21-4 29.5-11v7.5h35.9V63.8h-35.9zm-28.4 94.5c-16.2 0-29.3-13.8-29.3-30.8s13.1-30.8 29.3-30.8c18 0 30.4 13.8 30.4 30.8s-12.6 30.8-30.4 30.8z"/><path d="M178.6 45.7C161.5 18.3 131.2 0 96.6 0 43.3 0 0 43.6 0 97.3c0 53.7 43.3 97.3 96.6 97.3 49.8 0 90.8-37.9 96.1-86.6h-38.8c-5 27.7-28.4 48.6-56.5 48.6-31.8 0-57.5-26.7-57.5-59.7s25.7-59.7 57.5-59.7c21.5 0 40.5 13.9 50.8 30l30.4-21.5zM323.2 63.8h35.9v126.7h-35.9zM897.3 63.8h35.9v126.7h-35.9zM433.1 61c-12.1 0-23.4 3.9-32.8 10.6v-7.8h-35.9v126.7h35.9v-65.3c0-15.9 13.8-28.7 30.7-28.7 14.4 0 26 12.9 26 28.7v65.3h35.9v-65.3c0-35.4-26.8-64.2-59.8-64.2zM704.9 158.3c-3 0-5.9-.5-8.7-1.3l71.3-51.4c-9.3-25.5-33.6-44.4-62.6-44.4-36.6 0-66.4 29.7-66.4 66.4s32.1 66.4 68.7 66.4c23.6 0 43.4-10.9 56.4-26.5l-28.3-22.1c-8.5 10.5-17.7 12.9-30.4 12.9zm0-61.6c6.6 0 12.6 2.2 17.5 5.8L676 135.8c-.7-2.6-1.1-5.4-1.1-8.2-.1-17.1 13.4-30.9 30-30.9z"/><ellipse cx="341.3" cy="21.4" rx="20.7" ry="20.2"/><ellipse cx="915.2" cy="21.4" rx="20.7" ry="20.2"/><path d="M565.9 3.6h-64.8v186.9h39.6V162h25.2c43 0 77.6-36.9 77.6-80.6 0-43.8-34.7-77.8-77.6-77.8zm0 123.6h-25.2V38.8h26.1c20 0 36.8 19.2 36.8 45.9-.1 23-17 42.5-37.7 42.5z"/></g></g></svg>