<svg baseProfile="basic" xmlns="http://www.w3.org/2000/svg" viewBox="0 0 1144 261"><linearGradient id="a" gradientUnits="userSpaceOnUse" x1="0" y1="130.5" x2="1144" y2="130.5"><stop offset="0" stop-color="#4555da"/><stop offset="1" stop-color="#7a28d4"/></linearGradient><path fill="url(#a)" d="M1105 261H39c-21.5 0-39-17.5-39-39V39C0 17.5 17.5 0 39 0h1066c21.5 0 39 17.5 39 39v183c0 21.5-17.5 39-39 39z"/><linearGradient id="b" gradientUnits="userSpaceOnUse" x1="989.116" y1="77.303" x2="989.116" y2="201.79"><stop offset="0" stop-color="#fff"/><stop offset=".263" stop-color="#fcfcfc"/><stop offset=".483" stop-color="#f1f1f1"/><stop offset=".688" stop-color="#e0e0e0"/><stop offset=".883" stop-color="#c8c8c8"/><stop offset="1" stop-color="#b5b5b5"/></linearGradient><path fill="url(#b)" d="M1026.5 77.9c-2.6-1.6-6.1.4-9 1.8-.7.3-1.4.7-2.1 1.1-5.4 2.9-9.2 7.5-13.4 12 .8-3.2 1.4-6.4 2.3-9.5.9-2.9.2-4.1-3-4-7.5.1-15-.1-22.5-.1-10.5 0-10.5 0-12.2 10.1-3.5 20.7-6.1 41.5-9.5 62.2-2.5 15-4.1 30.2-6.3 45.3-.6 3.9-.2 5.1 3.9 5 9.4-.2 18.8-.2 28.3 0 3.5.1 4.6-1.2 5-4.6 2.5-17.8 5.3-35.6 7.9-53.4 2.5-17.6 5.6-21.1 22.4-23.7 2.6-.4 3.6-1.5 3.9-3.9 1.4-10.3 5.3-34.1 5.5-35.6 0-1.1-.2-2.1-1.2-2.7z"/><linearGradient id="c" gradientUnits="userSpaceOnUse" x1="902.698" y1="77.346" x2="902.698" y2="203.809"><stop offset="0" stop-color="#fff"/><stop offset=".263" stop-color="#fcfcfc"/><stop offset=".483" stop-color="#f1f1f1"/><stop offset=".688" stop-color="#e0e0e0"/><stop offset=".883" stop-color="#c8c8c8"/><stop offset="1" stop-color="#b5b5b5"/></linearGradient><path fill="url(#c)" d="M948.6 103.1c-1.2-10.7-7.2-18.6-17.2-22.3-11.2-4.1-22.7-4.4-34.7-1.8-18.8 4.1-28.2 16-32 33.8-3.3 15.6-4.9 31.4-7.4 47.1-.8 5.1-1 10.1-.9 15.2.3 11.6 6.6 21.1 17.5 25 18.2 6.5 46.1 5.7 60-14.1 7.1-10 8.3-21.5 10.1-32.9.4-2.6-1.3-2.8-3.2-2.8-9.3 0-18.5.1-27.8 0-3.2 0-4.4 1.2-4.8 4.4-.8 6.9-2 13.9-3.4 20.7-.9 4.3-3.7 7.4-8.5 6.5-5-.9-4.2-5.2-3.7-8.5 1.5-10.2 3.3-20.4 5-30.5 15.1-.1 30.3-.3 45.4-.4 1.5-.1 2.7-.5 2.9-2.4 1.6-12.2 4.2-24.5 2.7-37zm-48.5 16c.1-.6 2-10.4 2.8-14.6.7-3.7 2.7-6.3 6.9-5.6 4.1.7 4 4.1 3.7 7.1-.3 3.5-1.8 13.8-2.4 14.9-.5 1-1.3 1.5-2.4 1.7-.8.1-6 .3-6.9.1-1.5-.3-2.1-1.6-1.7-3.6z"/><linearGradient id="d" gradientUnits="userSpaceOnUse" x1="803.882" y1="77.278" x2="803.882" y2="225.802"><stop offset="0" stop-color="#fff"/><stop offset=".263" stop-color="#fcfcfc"/><stop offset=".483" stop-color="#f1f1f1"/><stop offset=".688" stop-color="#e0e0e0"/><stop offset=".883" stop-color="#c8c8c8"/><stop offset="1" stop-color="#b5b5b5"/></linearGradient><path fill="url(#d)" d="M853.3 79.2c-8.1.1-16.3.1-24.4-.2-4.4-.2-7.3.9-8.4 5.6-.8 3.5-2 3-4.1.5-3.5-4.3-8.2-6.9-13.9-7.5-19.3-2-31.3 6.5-34 25.8-3.3 23.1-9.1 45.8-8.9 69.4.1 8.8 3.9 15.7 12.4 18 9.2 2.5 18.3 2 26.9-2.5 2-1.1 3.2-1.6 6.1-3.3-.1 2.3-.2 4.6-.4 7-.7 8.7-3.4 11.1-12.1 11.1-11.6 0-23.3 0-34.9-.1-2.6 0-4.2.5-4.5 3.5-.5 5.2-1.2 10.4-2 15.6-.4 2.6.1 3.8 3.1 3.8 16.9-.1 33.8.3 50.7-.3 17.9-.7 32.4-12.7 35.4-28.2 1-5.1 14-95.2 16.9-114 .3-3.7-.9-4.3-3.9-4.2zM796.5 164c1.2-9.8 2.5-19.5 3.9-29.3 1.3-8.8 2.9-17.5 4.3-26.3.2-1.1.4-2.2.7-3.3 1-3.7 2.7-6.7 7.1-6.2 5 .5 3.2 4.6 3.7 8.2-1.7 11.5-3.5 23.8-5.4 36-1 6.7-2.2 13.5-3.4 20.2-.2 1.1-.5 2.2-1 3.2-1.3 3-3.5 4.6-6.8 4-3.5-.8-3.5-3.8-3.1-6.5z"/><linearGradient id="e" gradientUnits="userSpaceOnUse" x1="703.348" y1="77.198" x2="703.348" y2="201.734"><stop offset="0" stop-color="#fff"/><stop offset=".263" stop-color="#fcfcfc"/><stop offset=".483" stop-color="#f1f1f1"/><stop offset=".688" stop-color="#e0e0e0"/><stop offset=".883" stop-color="#c8c8c8"/><stop offset="1" stop-color="#b5b5b5"/></linearGradient><path fill="url(#e)" d="M728 77.4c-8.3.8-14.5 5.1-21.1 12 .6-3.3.8-5 1.2-6.7.5-2.5-.4-3.6-2.9-3.6h-31.6c-2.1 0-3 1-3.3 3.2-1.8 12.8-3.8 25.5-5.6 38.3-3.8 25.7-7.5 51.4-11.3 77-.4 2.9.1 4.1 3.2 4.1 10.1-.1 20.1-.1 30.2 0 2.6 0 3.4-1 4-3.5 1.9-9 13.2-87.9 14.6-94.7.7-3.5 3.3-5 6.8-4.5 3.9.5 3.6 3.5 3.3 6.2-1.1 9-9.9 70.7-13.3 92.6-.5 3 .4 4 3.4 4 9.9-.1 19.8-.1 29.7 0 2.6 0 3.5-.9 3.9-3.5 1.4-9.7 3.1-19.3 4.5-29 3.2-21.8 6.1-43.7 9.4-65.6 2.7-18.5-6.5-28.1-25.1-26.3z"/><linearGradient id="f" gradientUnits="userSpaceOnUse" x1="609.794" y1="76.869" x2="609.794" y2="203.692"><stop offset="0" stop-color="#fff"/><stop offset=".263" stop-color="#fcfcfc"/><stop offset=".483" stop-color="#f1f1f1"/><stop offset=".688" stop-color="#e0e0e0"/><stop offset=".883" stop-color="#c8c8c8"/><stop offset="1" stop-color="#b5b5b5"/></linearGradient><path fill="url(#f)" d="M641.8 80.5c-10.7-4.4-22.1-4.2-33-2.4-15.4 2.4-28.2 9.4-33.5 25.5-2 6.2-3.8 12.6-4.8 19.2-.5 3.6.4 4.2 3.4 4.2 8.5 0 16.9-.4 25.4.2 5.4.3 6.9-2 7.4-6.6.7-5.8 1.8-11.6 2.9-17.4.6-3.2 3-4.4 6-4.2 3.1.3 4.3 2.4 4.3 5.3 0 4.3-.4 8.5-1.1 12.8-.9 6-4.1 9.3-9.5 11.3-7.8 2.8-15.4 5.9-23.2 8.9-1.6.7-3.1 1.4-4.7 2.1-8.2 3.7-13.8 9.5-15.3 18.7-.6 3.8-1.4 7.5-2.1 11.2v-.1c-.6 5.5-1.5 11.1-1.2 16.7.5 9.3 4.6 14.4 13.6 16.7 4.7 1.2 9.4 1.3 14.2.7 7.3-1 12.6-5.2 17.7-11.5-.2 2.3-.6 5.3-.7 5.8-.6 3.7 1.8 4.4 5.9 4.2 8.3-.3 16.6-.2 24.9 0 3.6.1 5.2-.7 5.8-4.8 2.1-15.6 4.8-31.2 7-46.8 2.2-15.8 4.8-31.5 5.1-47.5.4-11.1-4.2-18-14.5-22.2zm-27.2 66.3c-1.5 9.7-3.1 19.5-4.7 29.2-.6 3.9-2.6 6.6-7.1 6-4.5-.6-4-4.2-4.1-7.1 1.4-11.2 1.8-22.5 13-29 .8-.5 1.7-1.2 2.4-1.1 1.1.1.7 1.2.5 2zm5.2-18.2z"/><linearGradient id="g" gradientUnits="userSpaceOnUse" x1="506.719" y1="52.044" x2="506.719" y2="201.797"><stop offset="0" stop-color="#fff"/><stop offset=".263" stop-color="#fcfcfc"/><stop offset=".483" stop-color="#f1f1f1"/><stop offset=".688" stop-color="#e0e0e0"/><stop offset=".883" stop-color="#c8c8c8"/><stop offset="1" stop-color="#b5b5b5"/></linearGradient><path fill="url(#g)" d="M543.2 78.4c-7.9-2.5-16-2-23.4 1.4-3.1 1.4-6.7 3-9.6 4.7.5-3.2 3.5-21 4.6-28.6.3-1.8-1.1-3.5-3-3.5-9.7-.1-19.7-.2-29.3-.3-2.3 0-4.4 1.4-5.1 3.6-.1.2-.1.4-.2.6l-.1.4c-1.4 9.8-2.7 19.6-4.1 29.4-2.5 17.6-5.1 35.1-7.6 52.7-2.8 19.3-5.3 38.7-8.7 58-.9 5.2.8 5.1 4.5 5.1 9.4-.1 18.8-.1 28.2 0 2.7 0 4.1-.3 4.5-3.7 1.1-10 3-19.9 4.5-29.8 1.8-12.2 3.2-24.4 5.1-36.5 1.4-8.9 2.9-17.8 4.9-26.6 1.5-6.7 6.9-8.9 10.5-3.7.5.7.6 3 .4 5.3-.1 1.3-2.9 16-3.1 17.1-1.7 10.4-8.9 60.3-11 73.6-.5 3.4.3 4.5 3.8 4.4 9.1-.2 18.2-.5 27.3 0 4.9.3 6.7-1.4 7.3-6 4.3-30.6 8.7-61.1 13.2-91.7 1.8-13.9-2.5-22.4-13.6-25.9z"/><linearGradient id="h" gradientUnits="userSpaceOnUse" x1="414.343" y1="77.18" x2="414.343" y2="203.968"><stop offset="0" stop-color="#fff"/><stop offset=".263" stop-color="#fcfcfc"/><stop offset=".483" stop-color="#f1f1f1"/><stop offset=".688" stop-color="#e0e0e0"/><stop offset=".883" stop-color="#c8c8c8"/><stop offset="1" stop-color="#b5b5b5"/></linearGradient><path fill="url(#h)" d="M447.1 82.8c-6.5-4-13.6-5.4-21-5.6-23.7-.7-46.8 9.1-50.2 40.4-1.8 15.9-5.8 34.4-7.1 50.2-.3 3.3.1 6.6.3 9.9.5 11 6.7 19.9 17.2 23.2 13.1 4.1 26.4 4.1 39.4-.7 9.5-3.5 16.3-10.2 21-19.1 4.3-8 5.6-16.9 7.6-25.5 0-.2.4-4.5-2.8-4.5-9.5.2-19 .3-28.6.4-1 0-1.8.7-1.9 1.7-.2 1.5-.4 3.5-.5 4-1.5 7.8-1 12.5-4 20-1.2 3.1-3.4 5.1-7 4.5-3.6-.6-4.2-3.5-4.3-6.5-.1-2.5 0-5.1.4-7.6 1.5-10.1 3.1-20.1 4.7-30.2 1.7-11 3.4-22 5.2-33 .6-3.7 2.6-6.4 6.9-5.5 4.1.8 3.7 4.4 3.5 7.3-.4 5.1-1 10.2-2 15.1-.7 3.6.7 4 3.7 3.9 7.2-.2 14.4-.1 21.5-.1 9.4 0 9.8 0 10.5-9.4.9-12.6.4-25.1-12.5-32.9z"/><linearGradient id="i" gradientUnits="userSpaceOnUse" x1="316.724" y1="52.023" x2="316.724" y2="201.765"><stop offset="0" stop-color="#fff"/><stop offset=".263" stop-color="#fcfcfc"/><stop offset=".483" stop-color="#f1f1f1"/><stop offset=".688" stop-color="#e0e0e0"/><stop offset=".883" stop-color="#c8c8c8"/><stop offset="1" stop-color="#b5b5b5"/></linearGradient><path fill="url(#i)" d="M371.5 58.7c1-2.1 2.8-4 2-6.6-10.2 0-20.3.1-30.5 0-3.8 0-5.7 1.1-7.3 5-6.8 16.4-14.2 32.6-21.4 48.9-.4 1-1.1 1.5-2.1 1.6v-.1c3.4-18.1 5.8-36.3 8.2-54.5-.3-.3-.5-.6-.8-.9l-.2-.1c-11 0-22 .2-33 0-2.6 0-4.6.5-5.1 3.1-1.4 7.3-11.9 98.2-16.7 117.4.1.2-4.3 23.8-5 27.3 0 .3 0 .5.1.8 0 .1.1.2.1.4.2.4.6.7 1 .7 12.1 0 24.1 0 36.2.1 2.3-.9 2-3.1 2.3-4.9 1.7-11 3.3-22 4.9-33.1l3.3-22.2c1 1.2 1.3 2.5 1.5 3.7 1.3 13.6 2.2 27.3 4 40.9 1.2 8.7 1.3 11.9 2.4 14.6.2.6.8 1 1.5 1H353c1.2-.4 1.5-1.3 1.6-2.5-.2-.5-3.2-20.4-3.4-20.9-.5-3.2-7-48.5-8.2-55.3-.5-2.7 0-4.9 1.1-7.3 9.2-19 18.3-38 27.4-57.1z"/><linearGradient id="j" gradientUnits="userSpaceOnUse" x1="188.563" y1="49.198" x2="188.563" y2="204.999"><stop offset="0" stop-color="#fff"/><stop offset=".263" stop-color="#fcfcfc"/><stop offset=".483" stop-color="#f1f1f1"/><stop offset=".688" stop-color="#e0e0e0"/><stop offset=".883" stop-color="#c8c8c8"/><stop offset="1" stop-color="#b5b5b5"/></linearGradient><path fill="url(#j)" d="M241.8 52.8c-5-2.2-10.3-3.3-15.7-3.6-4.8-.2-9.6.1-14.4.5-12 1.1-23.6 5.6-30.7 15.6-7.5 10.5-9.3 22-11 33.5-12.9 0-27.6.1-40.5.1-2 0-4.4-.4-4.8 2.5-.6 4.2-1.2 8.4-1.7 12.7-.1 1 .6 1.9 1.7 1.9 12.4.1 24.9.3 37.3.2 2.3 0 4.6-.3 5.2.5.5.7 0 2.7-.2 4.4-.5 3.8-2.7 17.4-2.8 18.5-.1 1-.2 2.3-.9 2.8-.6.5-1.9.4-2.7.4-1.5 0-22.7-.3-31.6-.3h-7.5c-1.5 0-2.8 1.1-3 2.7l-1.9 13.2c-.1.8.5 1.5 1.3 1.5 1.7 0 3.5.1 5.4.1 9.4.2 18.8-.2 28.2-.2 4.4 0 7.4-.3 8.5.8 1.1 1.1.2 3.5 0 7.9-.6 17.5 6.3 28.7 21.1 33.4 13.2 4.2 26.5 3.9 39.4-1 14.9-5.6 24.5-16.4 27.7-32.2 2.5-12.2 4.4-24.4 6.2-36.7 2.4-16.4 4.9-31.6 6-42.2.2-2.4.7-7.2.5-9.6-1.5-12.3-7.1-22-19.1-27.4zm-19.6 28.4c-.1 2.5-.5 5-.8 7.5.1.2-7.8 58-12.4 82.6-.3 1.5-.7 3.1-1.4 4.5-1.3 2.7-3.5 4.1-6.6 3.4-3.2-.7-3.7-3.3-3.4-6 1.3-11 12.6-88.2 14.2-93.7 1.1-3.5 3.4-5.4 7.1-4.8 3.7.8 3.5 3.8 3.3 6.5z"/></svg>