<svg baseProfile="basic" xmlns="http://www.w3.org/2000/svg" viewBox="0 0 1143.9 261"><g fill="#222"><path d="M242.7 160.4c0-4.7-1.7-8.3-5-10.8-3.4-2.6-9.4-5.2-18.1-8-8.7-2.8-15.6-5.6-20.7-8.3-13.9-7.5-20.8-17.5-20.8-30.1 0-6.6 1.8-12.4 5.5-17.5 3.7-5.2 9.1-9.2 16-12.1 7-2.9 14.8-4.3 23.5-4.3s16.5 1.6 23.3 4.8c6.8 3.1 12.1 7.5 15.8 13.3 3.8 5.7 5.7 12.2 5.7 19.5h-25.1c0-5.6-1.8-9.9-5.3-12.9-3.5-3.1-8.5-4.7-14.8-4.7-6.1 0-10.9 1.3-14.3 3.9-3.4 2.6-5.1 5.9-5.1 10.2 0 3.9 2 7.3 6 9.9 4 2.7 9.9 5.2 17.7 7.5 14.3 4.3 24.7 9.6 31.3 15.9 6.5 6.3 9.8 14.2 9.8 23.7 0 10.5-4 18.8-12 24.8-8 5.9-18.7 8.9-32.3 8.9-9.4 0-17.9-1.7-25.6-5.1-7.7-3.4-13.6-8.1-17.7-14.1-4-5.9-6-12.8-6-20.7h25.2c0 13.4 8 20.1 24.1 20.1 6 0 10.6-1.2 14-3.6 3.2-2.6 4.9-5.9 4.9-10.3zM380.1 157.2l16.4-86.4h25.1l-27.1 121.4h-25.3L349.3 111l-19.9 81.2h-25.3l-27-121.4h25.1l16.5 86.2 20.1-86.2h21.3l20 86.4zM500.4 167.3h-44.1l-8.4 25h-26.7l45.4-121.4H490l45.7 121.4H509l-8.6-25zM463.1 147h30.5l-15.3-45.5-15.2 45.5zM572.2 149.5v42.8H547V70.8h47.6c9.2 0 17.2 1.7 24.1 5 7 3.3 12.3 8.1 16.1 14.3 3.7 6.1 5.6 13.1 5.6 20.9 0 11.9-4.1 21.3-12.3 28.2-8.2 6.8-19.5 10.3-33.9 10.3h-22zm0-20.3h22.5c6.6 0 11.7-1.6 15.2-4.7s5.3-7.6 5.3-13.3c0-5.9-1.8-10.8-5.3-14.4-3.5-3.7-8.4-5.6-14.6-5.7h-23v38.1zM736.8 163.2c0-5.2-1.2-9.5-3.7-13.1-2.4-3.6-6.2-6.8-11.5-9.5-5.2-2.8-13.1-5.6-23.6-8.5-10.6-2.9-18.5-5.8-23.8-8.8-5.3-2.9-9.1-6.4-11.6-10.3-2.5-3.9-3.7-8.6-3.7-14.2 0-8.8 3.7-16 11.2-21.4 7.5-5.5 17.2-8.3 29.3-8.3 7.8 0 14.8 1.5 21 4.6 6.3 3 11.1 7.3 14.5 12.8 3.4 5.4 5.1 11.6 5.1 18.5h-4.5c0-9.1-3.4-16.5-10.1-22.4-6.7-5.9-15.4-8.9-26.1-8.9-10.7 0-19.4 2.4-26.1 7.2-6.6 4.7-9.9 10.7-9.9 17.8 0 7.3 2.9 13.2 8.6 17.6 5.8 4.4 15.3 8.4 28.5 11.8 13.2 3.4 22.9 7.3 29.1 11.8 7.8 5.7 11.7 13.4 11.7 23 0 6.1-1.7 11.5-5.2 16.3-3.5 4.7-8.4 8.3-14.8 10.8-6.4 2.6-13.5 3.8-21.5 3.8-8.8 0-16.8-1.4-23.8-4.3s-12.3-7.1-15.9-12.5c-3.5-5.4-5.3-11.8-5.3-19.1h4.5c0 10 3.7 17.7 11.2 23.2 7.5 5.5 17.2 8.3 29.2 8.3 10.7 0 19.5-2.4 26.4-7.3 7.3-4.8 10.8-11.1 10.8-18.9zM769.8 141v51.3h-4.5V70.8h38.1c12.5 0 22.1 3.1 29 9.4 6.9 6.2 10.4 14.9 10.4 26 0 11-3.4 19.5-10.1 25.5-6.7 6-16.3 9.1-28.7 9.2h-34.2zm0-4.5h33.6c11 0 19.6-2.6 25.6-7.9 6.1-5.3 9.2-12.7 9.2-22.1 0-9.8-3.1-17.4-9.2-22.9s-14.6-8.3-25.6-8.3h-33.6v61.2zM921.1 156h-59.8l-13.6 36.3h-4.9l45.7-121.4h5.5l45.7 121.4h-4.9L921.1 156zm-58.1-4.5h56.4l-28.2-75.2-28.2 75.2zM1041.4 155.1c-1.2 12.5-5.5 22.1-13 28.9-7.5 6.7-17.7 10-30.5 10-8.7 0-16.3-2.2-23-6.5-6.6-4.4-11.8-10.6-15.5-18.6-3.7-8.1-5.6-17.3-5.6-27.6v-18.8c0-10.3 1.8-19.6 5.4-27.7 3.6-8.2 8.8-14.5 15.5-18.9 6.8-4.4 14.5-6.7 23.2-6.7 12.7 0 22.9 3.3 30.4 10s11.9 16.2 13.1 28.7h-4.5c-1.3-11.2-5.2-19.7-11.7-25.4-6.5-5.8-15.6-8.8-27.2-8.8-11.8 0-21.4 4.4-28.7 13.3-7.3 8.9-10.9 20.8-10.9 35.8v17.8c0 9.6 1.6 18 4.9 25.4 3.2 7.3 7.9 13.1 13.9 17.2 6.1 4.1 13 6.2 20.9 6.2 11.7 0 20.8-2.9 27.3-8.6 6.6-5.7 10.5-14.3 11.6-25.8h4.4zM1135.4 132.1h-61.2v55.7h69.7v4.5h-74.3V70.8h74.3v4.5h-69.7v52.2h61.2v4.6z"/><path fill-rule="evenodd" clip-rule="evenodd" d="M128.6 130.5c0 35.5-28.8 64.3-64.3 64.3S-.1 166-.1 130.5s28.8-64.3 64.3-64.3 64.4 28.8 64.4 64.3zm-25.7-26.1c0 4.6-3.7 8.3-8.3 8.3-4.6 0-8.3-3.7-8.3-8.3 0-4.6 3.7-8.3 8.3-8.3 4.6 0 8.3 3.7 8.3 8.3zm-39 0c8.3 0 14.9-4.5 14.9-10s-6.7-10-14.9-10c-8.3 0-14.9 4.5-14.9 10-.1 5.5 6.6 10 14.9 10z"/></g></svg>